<?xml version="1.0" encoding="utf-8"?>
<!-- Generator: Adobe Illustrator 27.0.1, SVG Export Plug-In . SVG Version: 6.00 Build 0)  -->
<svg version="1.1" id="Layer_1" xmlns="http://www.w3.org/2000/svg" xmlns:xlink="http://www.w3.org/1999/xlink" x="0px" y="0px"
	 viewBox="0 0 3840 2160" style="enable-background:new 0 0 3840 2160;" xml:space="preserve">
<g>
	<path d="M465.8,895.7h129.1c112,0,162.3,63.8,161.8,142.6c0,27.5-7.8,53.9-20.7,75.7c19.2,36.8,30.1,85.6,30.1,144.2h-51.3
		c0-45.1-5.2-79.3-13.5-105.3c-20.7,15-46.2,23.9-74.7,23.9c-47.2,0-79.3-28-79.3-68.5c0-39.9,29.6-67.4,79.3-67.4
		c28.5,0,54.5,10.4,75.7,29c2.1-9.3,3.6-20.2,3.6-31.6c0-51.9-33.2-97.5-111-97.5h-77.8v317.4h-51.3V895.7z M631.8,1132.2
		c16.6,0,34.2-7.3,47.7-20.7c-15-18.1-33.7-25.9-52.9-25.9c-18.7,0-32.2,9.3-32.2,22.8C594.4,1122.4,607.9,1132.2,631.8,1132.2z"/>
	<path d="M802.4,1129.1c0-81.9,50.3-136.4,130.7-136.4c92.3,0,132.8,76.7,117.2,151.9H853.7c5.2,48.7,32.7,77.8,77.3,77.8
		c33.2,0,58.6-16.6,67.9-43.6h52.4c-15,53.4-59.1,86.6-120.3,86.6C852.2,1265.5,802.4,1211,802.4,1129.1z M1003.6,1105.2
		c1.6-37.9-24.4-69.5-72.1-69.5c-43,0-70,24.9-76.7,69.5H1003.6z"/>
	<path d="M1099,999.5h48.2v55c15.6-38.4,46.2-61.7,90.7-61.7c83,0,83,81.4,83,123.9v142.1h-48.2v-140.5c0-34.2,0-81.4-50.3-81.4
		c-44.6,0-75.2,38.4-75.2,95.9v126H1099V999.5z"/>
	<path d="M1554.8,1218.3c-21.8,30.6-51.9,47.2-100.6,47.2c-53.4,0-89.2-31.1-89.2-77.3c0-51.9,46.2-83,109.4-83
		c28.5,0,52.4,6.2,72.1,18.1v-5.2c0-48.7-19.2-82.5-63.8-82.5c-30.1,0-58.6,16.6-57.6,53.4h-49.3c-2.6-60.2,46.2-96.5,107.3-96.5
		c77.8,0,112,56.5,112,125.5c0,18.2-2.6,34.7-7.3,50.3c12.4,24.4,18.7,54.4,18.7,90.2h-48.2
		C1558.5,1243.7,1557.4,1230.2,1554.8,1218.3z M1461.5,1224.5c32.7,0,62.7-17.6,76.7-55c-15-17.1-38.4-25.4-63.8-25.4
		c-33.2,0-59.6,17.1-59.6,44.6C1414.8,1211.5,1432.4,1224.5,1461.5,1224.5z"/>
	<path d="M1678.2,891.1c19.2,0,33.7,14.5,33.7,33.7c0,18.7-14.5,33.7-33.7,33.7s-33.7-15-33.7-33.7
		C1644.5,905.6,1659.1,891.1,1678.2,891.1z M1653.9,999.5h48.2v259.3h-48.2V999.5z"/>
	<path d="M1869.6,1225.5c35.8,0,59.1-14,59.1-36.3c0-64.8-170.1-11.4-170.1-114.6c0-50.3,44.1-81.9,105.8-81.9
		c69,0,114.6,41.5,108.9,96.5h-46.7c2.1-33.2-23.3-56.5-63.3-56.5c-32.2,0-55,14-55,37.9c0,64.3,169.6,9.9,169.6,114.6
		c0,50.3-44.1,80.4-108.9,80.4c-67.9,0-118.8-36.3-114.1-99.6h46.7C1800.1,1201.7,1824,1225.5,1869.6,1225.5z"/>
	<path d="M2131,1225.5c35.8,0,59.1-14,59.1-36.3c0-64.8-170.1-11.4-170.1-114.6c0-50.3,44.1-81.9,105.8-81.9
		c69,0,114.6,41.5,108.9,96.5H2188c2.1-33.2-23.3-56.5-63.3-56.5c-32.2,0-55,14-55,37.9c0,64.3,169.6,9.9,169.6,114.6
		c0,50.3-44.1,80.4-108.9,80.4c-67.9,0-118.8-36.3-114.1-99.6h46.7C2061.5,1201.7,2085.3,1225.5,2131,1225.5z"/>
	<path d="M2466,1218.3c-21.8,30.6-51.9,47.2-100.6,47.2c-53.4,0-89.2-31.1-89.2-77.3c0-51.9,46.2-83,109.4-83
		c28.5,0,52.4,6.2,72.1,18.1v-5.2c0-48.7-19.2-82.5-63.8-82.5c-30.1,0-58.6,16.6-57.6,53.4H2287c-2.6-60.2,46.2-96.5,107.3-96.5
		c77.8,0,112,56.5,112,125.5c0,18.2-2.6,34.7-7.3,50.3c12.4,24.4,18.7,54.4,18.7,90.2h-48.2
		C2469.6,1243.7,2468.5,1230.2,2466,1218.3z M2372.6,1224.5c32.7,0,62.7-17.6,76.7-55c-15-17.1-38.4-25.4-63.8-25.4
		c-33.2,0-59.6,17.1-59.6,44.6C2325.9,1211.5,2343.6,1224.5,2372.6,1224.5z"/>
	<path d="M2562.4,999.5h48.2v55c15.6-38.4,46.2-61.7,90.8-61.7c83,0,83,81.4,83,123.9v142.1h-48.2v-140.5c0-34.2,0-81.4-50.3-81.4
		c-44.6,0-75.2,38.4-75.2,95.9v126h-48.2V999.5z"/>
	<path d="M2955,992.7c89.7,0,125,57.6,120.8,121.3H3025c4.1-49.8-23.3-78.3-71-78.3c-48.2,0-78.8,37.3-78.8,93.3
		c0,56,31.1,93.3,77.8,93.3c35.8,0,61.2-22.3,71.6-56.5h52.4c-10.9,51.3-51.9,99.6-124.5,99.6c-76.7,0-128.1-55-128.1-136.4
		C2824.3,1047.2,2875.1,992.7,2955,992.7z"/>
	<path d="M3111.1,1129.1c0-81.9,50.3-136.4,130.7-136.4c92.3,0,132.8,76.7,117.2,151.9h-196.5c5.2,48.7,32.7,77.8,77.3,77.8
		c33.2,0,58.6-16.6,67.9-43.6h52.4c-15,53.4-59.1,86.6-120.3,86.6C3160.8,1265.5,3111.1,1211,3111.1,1129.1z M3312.3,1105.2
		c1.6-37.9-24.4-69.5-72.1-69.5c-43,0-70,24.9-76.7,69.5H3312.3z"/>
</g>
</svg>
