<?xml version="1.0" encoding="utf-8"?>
<!-- Generator: Adobe Illustrator 27.0.1, SVG Export Plug-In . SVG Version: 6.00 Build 0)  -->
<svg version="1.1" id="Layer_1" xmlns="http://www.w3.org/2000/svg" xmlns:xlink="http://www.w3.org/1999/xlink" x="0px" y="0px"
	 viewBox="0 0 2160 2160" style="enable-background:new 0 0 2160 2160;" xml:space="preserve">
<path d="M597.1,497h415.4c360.3,0,522.1,205.2,520.4,458.7c0,88.4-25,173.5-66.7,243.5c61.7,118.4,96.7,275.2,96.7,463.7h-165.1
	c0-145.1-16.7-255.2-43.4-338.6c-66.7,48.4-148.5,76.7-240.2,76.7c-151.8,0-255.2-90.1-255.2-220.2c0-128.4,95.1-216.8,255.2-216.8
	c91.7,0,175.1,33.4,243.5,93.4c6.7-30,11.7-65.1,11.7-101.8c0-166.8-106.8-313.6-357-313.6H762.2V1663H597.1V497z M1130.9,1257.6
	c53.4,0,110.1-23.3,153.5-66.7c-48.4-58.4-108.4-83.4-170.1-83.4c-60,0-103.4,30-103.4,73.4
	C1010.8,1226,1054.1,1257.6,1130.9,1257.6z"/>
</svg>
